<?xml version="1.0" encoding="iso-8859-1"?>
<!-- Generator: Adobe Illustrator 19.0.0, SVG Export Plug-In . SVG Version: 6.00 Build 0)  -->
<svg xmlns="http://www.w3.org/2000/svg" xmlns:xlink="http://www.w3.org/1999/xlink" version="1.1" id="Layer_1" x="0px" y="0px" viewBox="0 0 512.568 512.568" style="enable-background:new 0 0 512.568 512.568;" xml:space="preserve" width="512" height="512">
<path d="M255.284,325.284c-38.598,0-70-31.402-70-70s31.402-70,70-70s70,31.402,70,70S293.882,325.284,255.284,325.284z   M255.284,225.284c-16.542,0-30,13.458-30,30s13.458,30,30,30s30-13.458,30-30S271.826,225.284,255.284,225.284z M133.426,333.142  l-76.858-76.858l76.858-76.858l-28.284-28.284L0,256.284l105.142,105.142L133.426,333.142z M361.426,407.426l-28.284-28.284  L256.284,456l-73.858-73.858l-28.284,28.284l102.142,102.142L361.426,407.426z M512.568,256.284L410.426,154.142l-28.284,28.284  L456,256.284l-74.858,74.858l28.284,28.284L512.568,256.284z M361.426,105.142L256.284,0L153.142,103.142l28.284,28.284  l74.858-74.858l76.858,76.858L361.426,105.142z"/>















</svg>
